<?xml version="1.0" encoding="UTF-8" standalone="no"?>
<!-- Created with Inkscape (http://www.inkscape.org/) -->

<svg
   xmlns:dc="http://purl.org/dc/elements/1.1/"
   xmlns:cc="http://creativecommons.org/ns#"
   xmlns:rdf="http://www.w3.org/1999/02/22-rdf-syntax-ns#"
   xmlns:svg="http://www.w3.org/2000/svg"
   xmlns="http://www.w3.org/2000/svg"
   xmlns:sodipodi="http://sodipodi.sourceforge.net/DTD/sodipodi-0.dtd"
   xmlns:inkscape="http://www.inkscape.org/namespaces/inkscape"
   width="57.48674mm"
   height="12.551709mm"
   viewBox="0 0 57.48674 12.551709"
   version="1.1"
   id="svg8"
   inkscape:version="0.92.3 (2405546, 2018-03-11)"
   sodipodi:docname="logo_txakur.svg">
  <defs
     id="defs2" />
  <sodipodi:namedview
     id="base"
     pagecolor="#ffffff"
     bordercolor="#666666"
     borderopacity="1.0"
     inkscape:pageopacity="0.0"
     inkscape:pageshadow="2"
     inkscape:zoom="1"
     inkscape:cx="100.95498"
     inkscape:cy="-156.12433"
     inkscape:document-units="mm"
     inkscape:current-layer="layer1"
     showgrid="false"
     fit-margin-top="0"
     fit-margin-left="0"
     fit-margin-right="0"
     fit-margin-bottom="0"
     inkscape:window-width="1366"
     inkscape:window-height="705"
     inkscape:window-x="-8"
     inkscape:window-y="-8"
     inkscape:window-maximized="1" />
  <metadata
     id="metadata5">
    <rdf:RDF>
      <cc:Work
         rdf:about="">
        <dc:format>image/svg+xml</dc:format>
        <dc:type
           rdf:resource="http://purl.org/dc/dcmitype/StillImage" />
        <dc:title></dc:title>
      </cc:Work>
    </rdf:RDF>
  </metadata>
  <g
     inkscape:label="Capa 1"
     inkscape:groupmode="layer"
     id="layer1"
     transform="translate(-16.875809,-53.652954)">
    <path
       style="fill:#3779ff;fill-opacity:1;stroke-width:0.023447"
       d="m 20.990753,62.893106 c -0.196659,-0.168283 -0.337498,-0.377017 -0.425936,-0.631591 -0.173172,-0.498442 -0.06386,-0.933674 0.307243,-1.223565 0.225269,-0.176019 0.381132,-0.205308 1.09688,-0.206331 0.813993,-0.0012 1.072199,-0.05509 1.564327,-0.32672 0.261808,-0.144411 0.431354,-0.283178 0.684544,-0.559911 0.305795,-0.334214 0.465962,-0.451104 0.759187,-0.554078 0.177531,-0.06237 0.28871,-0.08346 0.444432,-0.08446 0.201885,-0.0013 0.213915,0.0016 0.431468,0.107001 0.217545,0.105298 0.227301,0.113003 0.351605,0.272008 0.09591,0.122704 0.148257,0.223033 0.209484,0.400966 0.101186,0.293835 0.108847,0.491994 0.03645,0.93917 -0.05994,0.370259 -0.06353,0.58931 -0.01445,0.884242 0.09232,0.554757 0.210225,0.790811 0.714491,1.430421 0.323053,0.409863 0.402813,0.526057 0.454634,0.662675 0.114065,0.300666 0.07086,0.646413 -0.11306,0.905525 -0.271638,0.382676 -0.84036,0.580463 -1.362082,0.473705 -0.219315,-0.04485 -0.335176,-0.112513 -1.030977,-0.601804 -0.759884,-0.534358 -0.974652,-0.668059 -1.416809,-0.882076 -0.442166,-0.214009 -0.680275,-0.299472 -1.570781,-0.563955 -0.796312,-0.236479 -0.953854,-0.298493 -1.120698,-0.441202 z m 0.622411,-3.3849 c -0.246168,-0.173643 -0.447854,-0.545379 -0.492699,-0.908195 -0.06301,-0.509604 0.101956,-1.078297 0.418804,-1.443727 0.244991,-0.282559 0.614266,-0.469816 0.933369,-0.473326 0.147026,-0.0016 0.172764,0.0058 0.399847,0.115735 0.237188,0.114807 0.245459,0.120964 0.363249,0.272066 0.36472,0.467691 0.40623,1.150588 0.107626,1.768585 -0.375879,0.777901 -1.150923,1.077515 -1.730209,0.668871 z m 6.491164,3.143268 c -0.05222,-0.03736 -0.141424,-0.127403 -0.198184,-0.200217 -0.469089,-0.601295 -0.168262,-1.672662 0.616293,-2.194709 0.208654,-0.138827 0.538659,-0.242421 0.778614,-0.244406 0.204206,-0.0016 0.209549,-3.01e-4 0.450459,0.116301 0.22666,0.109704 0.250596,0.126663 0.34052,0.241088 0.194063,0.246908 0.277061,0.65838 0.20724,1.026922 -0.04152,0.219125 -0.166753,0.500654 -0.313409,0.704495 -0.495322,0.688479 -1.341979,0.936201 -1.881521,0.550519 z m -3.451211,-4.628072 c -0.403114,-0.348943 -0.577833,-1.032445 -0.424908,-1.662313 0.04769,-0.19641 0.217735,-0.536032 0.339894,-0.678838 0.158532,-0.18533 0.368073,-0.325982 0.586899,-0.393983 0.224806,-0.06985 0.410876,-0.06354 0.626951,0.02133 0.324775,0.127546 0.544451,0.381716 0.686965,0.794866 0.08078,0.234213 0.09392,0.310065 0.09397,0.542919 9.1e-5,0.45741 -0.105793,0.806456 -0.337093,1.111294 -0.432079,0.569431 -1.092287,0.680563 -1.572677,0.264735 z m 2.547781,1.238376 c -0.466971,-0.404753 -0.435427,-1.239893 0.06926,-1.833856 0.481087,-0.566179 1.246728,-0.801805 1.77484,-0.546192 0.71821,0.347622 0.747049,1.376856 0.05833,2.081574 -0.237532,0.243065 -0.490379,0.398155 -0.793958,0.487006 -0.414614,0.121367 -0.833038,0.0502 -1.108483,-0.18854 z"
       id="path842-2-4"
       inkscape:connector-curvature="0" />
    <g
       aria-label="TXAKURETXE"
       transform="matrix(0.19021387,0,0,0.19021387,15.793706,13.34268)"
       style="font-style:normal;font-weight:normal;font-size:40px;line-height:1.25;font-family:sans-serif;letter-spacing:0px;word-spacing:0px;fill:#000000;fill-opacity:1;stroke:none"
       id="flowRoot815">
      <path
         d="m 86.860677,237.66195 h 16.229163 v 3.625 h -6.333329 v 22.91667 h -3.583334 v -22.91667 h -6.3125 z"
         style="font-style:normal;font-variant:normal;font-weight:normal;font-stretch:normal;font-size:42.66666794px;font-family:'Tw Cen MT';-inkscape-font-specification:'Tw Cen MT'"
         id="path874"
         inkscape:connector-curvature="0" />
      <path
         d="m 106.13151,237.66195 h 4 l 5.9375,9.6875 5.85417,-9.6875 h 4.04167 l -7.89584,12.97917 8.125,13.5625 h -4.02083 l -6.10417,-10.1875 -6.1875,10.1875 h -4.04166 l 8.1875,-13.5625 z"
         style="font-style:normal;font-variant:normal;font-weight:normal;font-stretch:normal;font-size:42.66666794px;font-family:'Tw Cen MT';-inkscape-font-specification:'Tw Cen MT'"
         id="path876"
         inkscape:connector-curvature="0" />
      <path
         d="m 140.63151,236.64112 12.54167,27.5625 h -3.79167 l -3.10417,-6.79167 h -11.27083 l -3.02083,6.79167 h -3.77084 z m 0,8.3125 -4.27083,9.4375 h 8.54166 z"
         style="font-style:normal;font-variant:normal;font-weight:normal;font-stretch:normal;font-size:42.66666794px;font-family:'Tw Cen MT';-inkscape-font-specification:'Tw Cen MT'"
         id="path878"
         inkscape:connector-curvature="0" />
      <path
         d="m 156.48568,237.66195 h 3.625 v 10.79167 l 11.22916,-10.79167 h 5.08334 l -12.8125,12.33334 12.89583,14.20833 h -4.625 l -11.77083,-12.9375 v 12.9375 h -3.625 z"
         style="font-style:normal;font-variant:normal;font-weight:normal;font-stretch:normal;font-size:42.66666794px;font-family:'Tw Cen MT';-inkscape-font-specification:'Tw Cen MT'"
         id="path880"
         inkscape:connector-curvature="0" />
      <path
         d="m 179.94401,237.70362 h 3.625 v 16.3125 q 0,3.625 1.72917,5.60417 1.75,1.97916 4.9375,1.97916 3.16667,0 4.91667,-1.8125 1.77083,-1.83333 1.77083,-5.14583 v -16.9375 h 3.625 v 16.6875 q 0,4.875 -2.79167,7.79167 -2.77083,2.91666 -7.39583,2.91666 -4.72917,0 -7.58333,-2.95833 -2.83334,-2.95833 -2.83334,-8.72917 z"
         style="font-style:normal;font-variant:normal;font-weight:normal;font-stretch:normal;font-size:42.66666794px;font-family:'Tw Cen MT';-inkscape-font-specification:'Tw Cen MT'"
         id="path882"
         inkscape:connector-curvature="0" />
      <path
         d="m 206.38151,237.66195 h 5.75 q 4.29167,0 6.97917,2.14584 2.70833,2.125 2.70833,5.45833 0,2.66667 -1.75,4.70833 -1.75,2.04167 -5.45833,2.875 l 7.72917,11.35417 h -4.14584 l -7.375,-10.91667 h -0.8125 v 10.91667 h -3.625 z m 3.625,3.20834 v 9.25 q 8.02084,0.16666 8.02084,-4.64584 0,-1.6875 -0.9375,-2.75 -0.9375,-1.08333 -2.5,-1.45833 -1.5625,-0.39583 -4.58334,-0.39583 z"
         style="font-style:normal;font-variant:normal;font-weight:normal;font-stretch:normal;font-size:42.66666794px;font-family:'Tw Cen MT';-inkscape-font-specification:'Tw Cen MT'"
         id="path884"
         inkscape:connector-curvature="0" />
      <path
         d="m 226.86068,237.66195 h 14.70834 v 3.625 h -11.125 v 6.625 h 11.125 v 3.58334 h -11.125 v 9.125 h 11.125 v 3.58333 h -14.70834 z"
         style="font-style:normal;font-variant:normal;font-weight:normal;font-stretch:normal;font-size:42.66666794px;font-family:'Tw Cen MT';-inkscape-font-specification:'Tw Cen MT'"
         id="path886"
         inkscape:connector-curvature="0" />
      <path
         d="m 244.19402,237.66195 h 16.22917 v 3.625 h -6.33334 v 22.91667 h -3.58333 v -22.91667 h -6.3125 z"
         style="font-style:normal;font-variant:normal;font-weight:normal;font-stretch:normal;font-size:42.66666794px;font-family:'Tw Cen MT';-inkscape-font-specification:'Tw Cen MT'"
         id="path888"
         inkscape:connector-curvature="0" />
      <path
         d="m 263.46484,237.66195 h 4 l 5.9375,9.6875 5.85417,-9.6875 h 4.04167 l -7.89584,12.97917 8.125,13.5625 h -4.02083 l -6.10417,-10.1875 -6.1875,10.1875 h -4.04166 l 8.1875,-13.5625 z"
         style="font-style:normal;font-variant:normal;font-weight:normal;font-stretch:normal;font-size:42.66666794px;font-family:'Tw Cen MT';-inkscape-font-specification:'Tw Cen MT'"
         id="path890"
         inkscape:connector-curvature="0" />
      <path
         d="m 287.77735,237.66195 h 14.70834 v 3.625 h -11.125 v 6.625 h 11.125 v 3.58334 h -11.125 v 9.125 h 11.125 v 3.58333 h -14.70834 z"
         style="font-style:normal;font-variant:normal;font-weight:normal;font-stretch:normal;font-size:42.66666794px;font-family:'Tw Cen MT';-inkscape-font-specification:'Tw Cen MT'"
         id="path892"
         inkscape:connector-curvature="0" />
    </g>
    <path
       style="fill:#fd0058;stroke-width:0.00861701;fill-opacity:1"
       d="m 22.456633,65.330262 c -0.09302,0.01991 -0.185399,0.01449 -0.279484,-0.01646 -0.184214,-0.06059 -0.286962,-0.189589 -0.288871,-0.362641 -0.0012,-0.105059 0.02504,-0.157118 0.184374,-0.366411 0.181211,-0.238022 0.223046,-0.325472 0.253466,-0.529803 0.0162,-0.10868 0.0135,-0.189154 -0.01087,-0.324831 -0.02942,-0.163861 -0.02784,-0.236716 0.0074,-0.345333 0.02138,-0.06577 0.04002,-0.102948 0.07446,-0.148653 0.04465,-0.05925 0.04821,-0.0621 0.127487,-0.102165 0.07928,-0.04006 0.0837,-0.04119 0.157872,-0.04204 0.05723,-6.62e-4 0.09821,0.0064 0.163842,0.02824 0.108396,0.03598 0.167986,0.07794 0.282456,0.198823 0.09478,0.100091 0.157965,0.149991 0.25506,0.201435 0.182633,0.09676 0.277879,0.114972 0.577176,0.110334 0.191769,-0.0029 0.243499,-3.35e-4 0.294962,0.015 0.113263,0.03374 0.204619,0.123474 0.239282,0.234988 0.05119,0.164694 -0.01788,0.374928 -0.165424,0.503509 -0.06202,0.05405 -0.10762,0.07281 -0.405727,0.166921 -0.325563,0.102778 -0.412518,0.13569 -0.573646,0.217109 -0.16113,0.08143 -0.239199,0.131911 -0.515066,0.333034 -0.24668,0.179857 -0.299931,0.212042 -0.378827,0.228948 z M 21.60674,64.39351 c -0.105624,0.03318 -0.259189,0.0092 -0.375168,-0.05865 -0.162905,-0.09525 -0.292224,-0.270278 -0.328297,-0.444331 -0.02789,-0.134581 -2.27e-4,-0.28421 0.06992,-0.378201 0.03232,-0.04331 0.04024,-0.04916 0.122986,-0.09098 0.08644,-0.04368 0.09008,-0.04472 0.160486,-0.04542 0.217955,-0.0022 0.426683,0.137963 0.540599,0.363019 0.143386,0.283291 0.05804,0.576501 -0.190524,0.654566 z m 2.365885,-1.194978 c -0.02256,0.0069 -0.06875,0.01289 -0.102684,0.01323 -0.280258,0.0029 -0.526104,-0.323913 -0.503608,-0.669511 0.006,-0.09191 0.04933,-0.211409 0.102269,-0.28194 0.04505,-0.06002 0.04665,-0.06127 0.134437,-0.105639 0.08259,-0.04174 0.09289,-0.04494 0.146368,-0.04569 0.115404,-0.0016 0.254104,0.06592 0.346182,0.168506 0.05474,0.061 0.109045,0.160371 0.135877,0.248671 0.09063,0.298236 -0.02585,0.600791 -0.25884,0.672367 z m -2.121574,-0.02414 c -0.191833,0.03993 -0.430449,-0.06148 -0.580322,-0.246639 -0.04674,-0.05773 -0.108009,-0.183153 -0.122477,-0.250687 -0.01878,-0.08764 -0.01312,-0.180216 0.01581,-0.259301 0.02974,-0.08125 0.07308,-0.134183 0.146063,-0.178371 0.109692,-0.06642 0.232929,-0.0739 0.385393,-0.02338 0.08643,0.02864 0.111517,0.04172 0.179543,0.09364 0.133627,0.10199 0.211967,0.210766 0.24942,0.34632 0.06996,0.25321 -0.04483,0.470839 -0.273434,0.518415 z m 0.929966,-0.467993 c -0.222376,0.04612 -0.459282,-0.149353 -0.520211,-0.429244 -0.05809,-0.266801 0.04386,-0.542994 0.236311,-0.640242 0.261723,-0.132253 0.568789,0.08888 0.621026,0.447224 0.01802,0.123594 0.007,0.23204 -0.03483,0.34053 -0.05702,0.148176 -0.171134,0.254522 -0.302302,0.281732 z"
       id="path842-2"
       inkscape:connector-curvature="0" />
  </g>
</svg>
