<?xml version="1.0" encoding="UTF-8" standalone="no"?>
<!-- Created with Inkscape (http://www.inkscape.org/) -->

<svg
   xmlns:dc="http://purl.org/dc/elements/1.1/"
   xmlns:cc="http://creativecommons.org/ns#"
   xmlns:rdf="http://www.w3.org/1999/02/22-rdf-syntax-ns#"
   xmlns:svg="http://www.w3.org/2000/svg"
   xmlns="http://www.w3.org/2000/svg"
   xmlns:sodipodi="http://sodipodi.sourceforge.net/DTD/sodipodi-0.dtd"
   xmlns:inkscape="http://www.inkscape.org/namespaces/inkscape"
   width="29.911015mm"
   height="7.9796143mm"
   viewBox="0 0 29.911014 7.9796145"
   version="1.1"
   id="svg8"
   inkscape:version="0.92.3 (2405546, 2018-03-11)"
   sodipodi:docname="logo.svg">
  <defs
     id="defs2" />
  <sodipodi:namedview
     id="base"
     pagecolor="#ffffff"
     bordercolor="#666666"
     borderopacity="1.0"
     inkscape:pageopacity="0.0"
     inkscape:pageshadow="2"
     inkscape:zoom="1"
     inkscape:cx="71.398513"
     inkscape:cy="-8.1959261"
     inkscape:document-units="mm"
     inkscape:current-layer="layer1"
     showgrid="false"
     fit-margin-top="0"
     fit-margin-left="0"
     fit-margin-right="0"
     fit-margin-bottom="0"
     inkscape:window-width="1366"
     inkscape:window-height="705"
     inkscape:window-x="-8"
     inkscape:window-y="-8"
     inkscape:window-maximized="1" />
  <metadata
     id="metadata5">
    <rdf:RDF>
      <cc:Work
         rdf:about="">
        <dc:format>image/svg+xml</dc:format>
        <dc:type
           rdf:resource="http://purl.org/dc/dcmitype/StillImage" />
        <dc:title></dc:title>
      </cc:Work>
    </rdf:RDF>
  </metadata>
  <g
     inkscape:label="Capa 1"
     inkscape:groupmode="layer"
     id="layer1"
     transform="translate(-13.306682,-11.673883)">
    <g
       aria-label="Ipar
"
       transform="matrix(0.11514973,0,0,0.11514973,10.509353,8.2053703)"
       style="font-style:normal;font-weight:normal;font-size:40px;line-height:1.25;font-family:sans-serif;letter-spacing:0px;word-spacing:0px;fill:#72c7dd;fill-opacity:0.64313725;stroke:none"
       id="flowRoot1426">
      <path
         d="M 35.777344,60.510791 H 24.292969 v -2.96875 h 3.808593 V 34.39751 h -3.808593 v -2.96875 h 11.484375 v 2.96875 H 31.96875 v 23.144531 h 3.808594 z"
         style="fill:#000000;fill-opacity:0.64313725"
         id="path1496"
         inkscape:connector-curvature="0" />
      <path
         d="m 61.304687,49.338916 q 0,2.65625 -0.761718,4.863281 -0.761719,2.1875 -2.148438,3.710938 -1.289062,1.445312 -3.046875,2.246093 -1.738281,0.78125 -3.691406,0.78125 -1.699219,0 -3.085938,-0.371093 -1.367187,-0.371094 -2.792968,-1.152344 v 9.140625 H 42.105469 V 38.694385 h 3.671875 v 2.285156 q 1.464843,-1.230469 3.28125,-2.050781 1.835937,-0.839844 3.90625,-0.839844 3.945312,0 6.132812,2.988281 2.207031,2.96875 2.207031,8.261719 z m -3.789062,0.09766 q 0,-3.945312 -1.347656,-5.898437 -1.347657,-1.953125 -4.140625,-1.953125 -1.582032,0 -3.183594,0.683593 -1.601563,0.683594 -3.066406,1.796875 V 56.42876 q 1.5625,0.703125 2.675781,0.957031 1.132812,0.253906 2.558594,0.253906 3.066406,0 4.785156,-2.070312 1.71875,-2.070313 1.71875,-6.132813 z"
         style="fill:#000000;fill-opacity:0.64313725"
         id="path1498"
         inkscape:connector-curvature="0" />
      <path
         d="M 83.980469,60.510791 H 80.328125 V 58.186572 Q 79.839844,58.518603 79,59.124072 q -0.820313,0.585938 -1.601563,0.9375 -0.917968,0.449219 -2.109375,0.742188 -1.191406,0.3125 -2.792968,0.3125 -2.949219,0 -5,-1.953125 -2.050782,-1.953125 -2.050782,-4.980469 0,-2.480469 1.054688,-4.003906 1.074219,-1.542969 3.046875,-2.421875 1.992187,-0.878907 4.785156,-1.191407 2.792969,-0.3125 5.996094,-0.46875 v -0.566406 q 0,-1.25 -0.449219,-2.070312 -0.429687,-0.820313 -1.25,-1.289063 -0.78125,-0.449219 -1.875,-0.605469 -1.09375,-0.15625 -2.285156,-0.15625 -1.445313,0 -3.222656,0.390625 -1.777344,0.371094 -3.671875,1.09375 h -0.195313 v -3.730468 q 1.074219,-0.292969 3.105469,-0.644532 2.03125,-0.351562 4.003906,-0.351562 2.304688,0 4.003906,0.390625 1.71875,0.371094 2.96875,1.289062 1.230469,0.898438 1.875,2.324219 0.644532,1.425781 0.644532,3.535156 z m -3.652344,-5.371094 v -6.074219 q -1.679688,0.09766 -3.964844,0.292969 -2.265625,0.195313 -3.59375,0.566406 -1.582031,0.449219 -2.558594,1.40625 -0.976562,0.9375 -0.976562,2.597657 0,1.875 1.132812,2.832031 1.132813,0.9375 3.457032,0.9375 1.933593,0 3.535156,-0.742188 1.601562,-0.761718 2.96875,-1.816406 z"
         style="fill:#000000;fill-opacity:0.64313725"
         id="path1500"
         inkscape:connector-curvature="0" />
      <path
         d="m 104.70313,42.698291 h -0.19532 q -0.82031,-0.195313 -1.60156,-0.273438 -0.76172,-0.09766 -1.81641,-0.09766 -1.699215,0 -3.281246,0.761719 -1.582032,0.742187 -3.046875,1.933594 V 60.510791 H 91.089844 V 38.694385 h 3.671875 v 3.222656 q 2.1875,-1.757813 3.847656,-2.480469 1.679685,-0.742187 3.417965,-0.742187 0.95704,0 1.38672,0.05859 0.42969,0.03906 1.28907,0.175782 z"
         style="fill:#000000;fill-opacity:0.64313725"
         id="path1502"
         inkscape:connector-curvature="0" />
    </g>
    <g
       aria-label="tek"
       transform="matrix(0.11514973,0,0,0.11514973,9.6796488,7.3756663)"
       style="font-style:normal;font-weight:normal;font-size:40px;line-height:1.25;font-family:sans-serif;letter-spacing:0px;word-spacing:0px;fill:#0c2661;fill-opacity:1;stroke:none"
       id="flowRoot1447">
      <path
         d="m 130.22852,67.52251 q -1.03516,0.273437 -2.26563,0.449218 -1.21094,0.175782 -2.16797,0.175782 -3.33984,0 -5.07812,-1.796875 -1.73828,-1.796875 -1.73828,-5.761719 V 48.987353 h -2.48047 v -3.085937 h 2.48047 v -6.269531 h 3.67187 v 6.269531 h 7.57813 v 3.085937 h -7.57813 v 9.941407 q 0,1.71875 0.0781,2.695312 0.0781,0.957031 0.54687,1.796875 0.42969,0.78125 1.17188,1.152344 0.76171,0.351562 2.30468,0.351562 0.89844,0 1.875,-0.253906 0.97657,-0.273437 1.40625,-0.449219 h 0.19532 z"
         style="fill:#373737;fill-opacity:1"
         id="path1489"
         inkscape:connector-curvature="0" />
      <path
         d="m 152.94336,57.190478 h -16.07422 q 0,2.011719 0.60547,3.515625 0.60547,1.484375 1.66016,2.441407 1.01562,0.9375 2.40234,1.40625 1.40625,0.46875 3.08594,0.46875 2.22656,0 4.47265,-0.878907 2.26563,-0.898437 3.22266,-1.757812 h 0.19531 v 4.003906 q -1.85547,0.78125 -3.78906,1.308594 -1.93359,0.527344 -4.0625,0.527344 -5.42969,0 -8.47656,-2.929688 -3.04688,-2.949219 -3.04688,-8.359375 0,-5.351562 2.91016,-8.496094 2.92969,-3.144531 7.69531,-3.144531 4.41406,0 6.79688,2.578125 2.40234,2.578125 2.40234,7.324219 z m -3.57422,-2.8125 q -0.0195,-2.890625 -1.46484,-4.472656 -1.42578,-1.582031 -4.35547,-1.582031 -2.94922,0 -4.70703,1.738281 -1.73828,1.738281 -1.97266,4.316406 z"
         style="fill:#373737;fill-opacity:1"
         id="path1491"
         inkscape:connector-curvature="0" />
      <path
         d="m 178.31445,67.717822 h -4.84375 l -8.75,-9.550781 -2.38281,2.265625 v 7.285156 h -3.67187 V 37.327197 h 3.67187 v 19.492188 l 10.60547,-10.917969 h 4.62891 l -10.13672,10.078125 z"
         style="fill:#373737;fill-opacity:1"
         id="path1493"
         inkscape:connector-curvature="0" />
    </g>
    <g
       aria-label="market"
       style="font-style:normal;font-weight:normal;font-size:5.82777071px;line-height:1.25;font-family:sans-serif;letter-spacing:0px;word-spacing:0px;fill:#7a7a7a;fill-opacity:1;stroke:none;stroke-width:0.14569426"
       id="text1457"
       transform="matrix(0.79035184,0,0,0.79035184,2.7897213,2.4474081)">
      <path
         d="M 17.621995,20.996258 H 17.155318 V 19.32305 q 0,-0.48375 -0.150816,-0.700015 -0.147971,-0.216265 -0.500824,-0.216265 -0.298787,0 -0.509361,0.273177 -0.207728,0.273176 -0.207728,0.654486 v 1.661825 h -0.466677 v -1.73012 q 0,-0.859368 -0.663023,-0.859368 -0.307324,0 -0.506515,0.258949 -0.199192,0.256103 -0.199192,0.668714 v 1.661825 h -0.466676 v -2.913886 h 0.466676 v 0.460986 h 0.01138 q 0.310169,-0.52928 0.904898,-0.52928 0.298787,0 0.520743,0.16789 0.221956,0.165044 0.304478,0.435376 0.324398,-0.603266 0.967501,-0.603266 0.96181,0 0.96181,1.186612 z"
         style="font-style:normal;font-variant:normal;font-weight:normal;font-stretch:normal;font-family:'segoe ui';-inkscape-font-specification:'segoe ui';letter-spacing:0.81297404px;fill:#7a7a7a;fill-opacity:1;stroke-width:0.14569426"
         id="path1476"
         inkscape:connector-curvature="0" />
      <path
         d="m 21.402921,20.996258 h -0.466677 v -0.455295 h -0.01138 q -0.304478,0.523589 -0.896361,0.523589 -0.435375,0 -0.682942,-0.230493 -0.244721,-0.230493 -0.244721,-0.611802 0,-0.816685 0.96181,-0.950427 l 0.873597,-0.122361 q 0,-0.742699 -0.60042,-0.742699 -0.526434,0 -0.950427,0.358544 v -0.478059 q 0.429684,-0.273177 0.990265,-0.273177 1.027259,0 1.027259,1.087016 z m -0.466677,-1.474016 -0.702861,0.09675 q -0.324398,0.04553 -0.489442,0.162198 -0.165044,0.113824 -0.165044,0.40692 0,0.213419 0.150816,0.350008 0.153662,0.133742 0.40692,0.133742 0.347162,0 0.571963,-0.241875 0.227648,-0.244721 0.227648,-0.617493 z"
         style="font-style:normal;font-variant:normal;font-weight:normal;font-stretch:normal;font-family:'segoe ui';-inkscape-font-specification:'segoe ui';letter-spacing:0.81297404px;fill:#7a7a7a;fill-opacity:1;stroke-width:0.14569426"
         id="path1478"
         inkscape:connector-curvature="0" />
      <path
         d="m 24.62042,18.554741 q -0.122361,-0.0939 -0.352854,-0.0939 -0.298787,0 -0.500824,0.281714 -0.199191,0.281713 -0.199191,0.768309 v 1.485399 h -0.466677 v -2.913886 h 0.466677 v 0.60042 h 0.01138 q 0.0996,-0.307324 0.304478,-0.478059 0.204883,-0.173581 0.458141,-0.173581 0.182117,0 0.278868,0.03984 z"
         style="font-style:normal;font-variant:normal;font-weight:normal;font-stretch:normal;font-family:'segoe ui';-inkscape-font-specification:'segoe ui';letter-spacing:0.81297404px;fill:#7a7a7a;fill-opacity:1;stroke-width:0.14569426"
         id="path1480"
         inkscape:connector-curvature="0" />
      <path
         d="m 28.35866,20.996258 h -0.654486 l -1.286207,-1.400031 h -0.01138 v 1.400031 H 25.93991 v -4.313916 h 0.466677 v 2.734613 h 0.01138 l 1.223604,-1.334583 h 0.611803 l -1.351656,1.405722 z"
         style="font-style:normal;font-variant:normal;font-weight:normal;font-stretch:normal;font-family:'segoe ui';-inkscape-font-specification:'segoe ui';letter-spacing:0.81297404px;fill:#7a7a7a;fill-opacity:1;stroke-width:0.14569426"
         id="path1482"
         inkscape:connector-curvature="0" />
      <path
         d="m 31.997306,19.655984 h -2.057362 q 0.01138,0.486596 0.261794,0.751236 0.250412,0.26464 0.688633,0.26464 0.492288,0 0.904898,-0.324397 v 0.438221 q -0.384154,0.278868 -1.015876,0.278868 -0.617493,0 -0.970346,-0.395537 -0.352853,-0.398383 -0.352853,-1.118318 0,-0.680096 0.384154,-1.106934 0.387001,-0.429685 0.958965,-0.429685 0.571963,0 0.884978,0.369927 0.313015,0.369927 0.313015,1.027259 z m -0.478059,-0.395537 q -0.0028,-0.404074 -0.196346,-0.628875 -0.190654,-0.224802 -0.532125,-0.224802 -0.330089,0 -0.560582,0.236184 -0.230493,0.236184 -0.284559,0.617493 z"
         style="font-style:normal;font-variant:normal;font-weight:normal;font-stretch:normal;font-family:'segoe ui';-inkscape-font-specification:'segoe ui';letter-spacing:0.81297404px;fill:#7a7a7a;fill-opacity:1;stroke-width:0.14569426"
         id="path1484"
         inkscape:connector-curvature="0" />
      <path
         d="m 34.87049,20.967802 q -0.165044,0.09106 -0.435376,0.09106 -0.765464,0 -0.765464,-0.853678 v -1.724428 h -0.500824 v -0.398383 h 0.500824 v -0.711397 l 0.466677,-0.150817 v 0.862214 h 0.734163 v 0.398383 h -0.734163 v 1.641906 q 0,0.293096 0.0996,0.418302 0.0996,0.125206 0.330089,0.125206 0.176426,0 0.304478,-0.09675 z"
         style="font-style:normal;font-variant:normal;font-weight:normal;font-stretch:normal;font-family:'segoe ui';-inkscape-font-specification:'segoe ui';letter-spacing:0.81297404px;fill:#7a7a7a;fill-opacity:1;stroke-width:0.14569426"
         id="path1486"
         inkscape:connector-curvature="0" />
    </g>
    <path
       style="fill:#0c2661;fill-opacity:1;stroke:none;stroke-width:0.12373473px;stroke-linecap:butt;stroke-linejoin:miter;stroke-opacity:1"
       d="m 43.217696,16.576975 -4.351126,-4.2503 -4.083993,4.188915 1.545218,1.624132 2.690077,-2.899132 2.733044,2.617543 z"
       id="path1459-3"
       inkscape:connector-curvature="0"
       sodipodi:nodetypes="ccccccc" />
    <path
       style="fill:#72c7dc;fill-opacity:1;stroke:none;stroke-width:0.16542932px;stroke-linecap:butt;stroke-linejoin:miter;stroke-opacity:1"
       d="m 41.833951,17.714972 -5.495464,-5.38407 -3.992101,4.328215 1.358729,1.66926 2.537197,-2.762847 3.547129,4.087967 z"
       id="path1459"
       inkscape:connector-curvature="0"
       sodipodi:nodetypes="ccccccc" />
  </g>
</svg>
