<?xml version="1.0" encoding="UTF-8" standalone="no"?>
<!-- Generator: Adobe Illustrator 17.0.0, SVG Export Plug-In . SVG Version: 6.00 Build 0)  -->

<svg
   xmlns:osb="http://www.openswatchbook.org/uri/2009/osb"
   xmlns:dc="http://purl.org/dc/elements/1.1/"
   xmlns:cc="http://creativecommons.org/ns#"
   xmlns:rdf="http://www.w3.org/1999/02/22-rdf-syntax-ns#"
   xmlns:svg="http://www.w3.org/2000/svg"
   xmlns="http://www.w3.org/2000/svg"
   xmlns:xlink="http://www.w3.org/1999/xlink"
   xmlns:sodipodi="http://sodipodi.sourceforge.net/DTD/sodipodi-0.dtd"
   xmlns:inkscape="http://www.inkscape.org/namespaces/inkscape"
   version="1.1"
   id="Layer_2"
   x="0px"
   y="0px"
   width="61.783291"
   height="30.333"
   viewBox="0 0 61.783292 30.333001"
   enable-background="new 0 0 119.99 63.835"
   xml:space="preserve"
   sodipodi:docname="logo.svg"
   inkscape:version="0.92.3 (2405546, 2018-03-11)"
   inkscape:export-filename="C:\Users\curso\git\java_2018_0507\koldoweb2\src\main\webapp\logo.png"
   inkscape:export-xdpi="96"
   inkscape:export-ydpi="96"><metadata
   id="metadata835"><rdf:RDF><cc:Work
       rdf:about=""><dc:format>image/svg+xml</dc:format><dc:type
         rdf:resource="http://purl.org/dc/dcmitype/StillImage" /><dc:title /></cc:Work></rdf:RDF></metadata><defs
   id="defs833"><linearGradient
     inkscape:collect="always"
     id="linearGradient1468"><stop
       style="stop-color:#1a7885;stop-opacity:1;"
       offset="0"
       id="stop1464" /><stop
       style="stop-color:#1a7885;stop-opacity:0;"
       offset="1"
       id="stop1466" /></linearGradient><linearGradient
     inkscape:collect="always"
     id="linearGradient1458"><stop
       id="stop1456"
       offset="0"
       style="stop-color:#1a7885;stop-opacity:0;" /><stop
       id="stop1454"
       offset="1"
       style="stop-color:#1a7885;stop-opacity:1;" /></linearGradient><linearGradient
     id="linearGradient1707"
     osb:paint="solid"><stop
       style="stop-color:#33434d;stop-opacity:1;"
       offset="0"
       id="stop1705" /></linearGradient><marker
     inkscape:isstock="true"
     style="overflow:visible"
     id="marker1100"
     refX="0.0"
     refY="0.0"
     orient="auto"
     inkscape:stockid="Arrow1Lstart"><path
       transform="scale(0.8) translate(12.5,0)"
       style="fill-rule:evenodd;stroke:none;stroke-width:1pt;stroke-opacity:1;fill:#33434d;fill-opacity:1"
       d="M 0.0,0.0 L 5.0,-5.0 L -12.5,0.0 L 5.0,5.0 L 0.0,0.0 z "
       id="path1098" /></marker><linearGradient
     inkscape:collect="always"
     xlink:href="#linearGradient1458"
     id="linearGradient1460"
     x1="26.958446"
     y1="18.249693"
     x2="31.018818"
     y2="18.249693"
     gradientUnits="userSpaceOnUse"
     gradientTransform="translate(0,-2)" /><linearGradient
     inkscape:collect="always"
     xlink:href="#linearGradient1468"
     id="linearGradient1470"
     x1="31.018818"
     y1="18.315984"
     x2="35.885669"
     y2="18.315984"
     gradientUnits="userSpaceOnUse"
     gradientTransform="translate(0,-2)" /></defs><sodipodi:namedview
   pagecolor="#ffffff"
   bordercolor="#666666"
   borderopacity="1"
   objecttolerance="10"
   gridtolerance="10"
   guidetolerance="10"
   inkscape:pageopacity="0"
   inkscape:pageshadow="2"
   inkscape:window-width="1366"
   inkscape:window-height="705"
   id="namedview831"
   showgrid="false"
   fit-margin-top="0"
   fit-margin-left="0"
   fit-margin-right="0"
   fit-margin-bottom="0"
   inkscape:zoom="5.6568542"
   inkscape:cx="34.038782"
   inkscape:cy="17.008343"
   inkscape:window-x="-8"
   inkscape:window-y="-8"
   inkscape:window-maximized="1"
   inkscape:current-layer="layer1" />


<g
   inkscape:groupmode="layer"
   id="layer1"
   inkscape:label="capas"><rect
     style="fill:#f8f8f8;fill-opacity:1;stroke:none;stroke-width:0;stroke-miterlimit:4;stroke-dasharray:none;stroke-opacity:1"
     id="rect1472"
     width="64.169937"
     height="33.234016"
     x="-1.4142127"
     y="-0.69130886" /><path
     style="fill:#0e626e;fill-opacity:1;stroke:none;stroke-width:0.94524807px;stroke-linecap:butt;stroke-linejoin:miter;stroke-opacity:1"
     d="m 17.128907,8.645499 c -0.115452,0.241848 -6.753906,15.841043 -6.753906,15.841043 l 0.981336,0.725544 17.760857,0.121232 21.781245,-3.08e-4 1.039063,-1.148778 -6.696181,-15.417809 z"
     id="path1423"
     inkscape:connector-curvature="0"
     sodipodi:nodetypes="cccccccc" /><path
     style="fill:none;stroke:none;stroke-width:1px;stroke-linecap:butt;stroke-linejoin:miter;stroke-opacity:1"
     d="m 16.125001,8.645499 c -0.125,0.25 -7.3125006,16.375001 -7.3125006,16.375001 l 1.0625,0.75 19.2297986,0.125318 23.582703,-3.18e-4 1.125,-1.1875 -7.25,-15.937501 z"
     id="path1430"
     inkscape:connector-curvature="0"
     sodipodi:nodetypes="cccccccc" /></g><g
   inkscape:groupmode="layer"
   id="layer2"
   inkscape:label="capas 1"
   style="display:inline"><path
     style="fill:#29bed4;fill-opacity:1;stroke:none;stroke-width:1px;stroke-linecap:butt;stroke-linejoin:miter;stroke-opacity:1"
     d="m 17.56671,8.500054 -6.210373,16.712032 0.625,0.25 c 0,0 7.460143,-2.756627 11.375,-3.125 1.290161,-0.121399 2.692404,-0.217331 3.875,0.3125 1.592477,0.713468 3.787481,3.613886 3.787481,3.613886 0,0 2.673093,-2.987968 4.46252,-3.738886 0.791367,-0.33209 1.707492,-0.324201 2.5625,-0.25 3.962962,0.343919 11.5,3.1875 11.5,3.1875 l 0.75,-0.875 -5.888412,-16.087419 c 0,0 -3.017334,0.0075 -4.486588,-0.287582 -1.815104,-0.3645741 -3.464515,-1.9241576 -5.3125,-1.8124999 -1.350772,0.081615 -3.58752,1.7772369 -3.58752,1.7772369 0,0 -2.15804,-1.8050617 -3.474981,-1.9022369 -1.860311,-0.1372696 -3.424527,1.5537688 -5.25,1.9374999 C 20.74897,8.536831 17.56671,8.500054 17.56671,8.500054 Z"
     id="path1426"
     inkscape:connector-curvature="0"
     sodipodi:nodetypes="cccsscsscccsscssc" /></g><g
   inkscape:groupmode="layer"
   id="layer3"
   inkscape:label="capas 2"><path
     style="fill:url(#linearGradient1460);fill-opacity:1;stroke:none;stroke-width:1px;stroke-linecap:butt;stroke-linejoin:miter;stroke-opacity:1"
     d="m 27.886523,6.2359133 -0.928077,16.1750677 4.060372,3.852491 V 8.176822 c 0,0 -0.753024,-0.8591177 -1.229047,-1.160647 -0.53532,-0.3390899 -1.903248,-0.7802617 -1.903248,-0.7802617 z"
     id="path1450"
     inkscape:connector-curvature="0"
     sodipodi:nodetypes="ccccsc" /><path
     style="fill:url(#linearGradient1470);fill-opacity:1;stroke:none;stroke-width:1px;stroke-linecap:butt;stroke-linejoin:miter;stroke-opacity:1"
     d="m 34.338873,6.3684957 1.546796,15.8657083 -4.866851,4.029268 V 8.176822 c 0,0 0.984986,-0.9330231 1.565955,-1.2715284 0.528863,-0.3081454 1.7541,-0.5367979 1.7541,-0.5367979 z"
     id="path1452"
     inkscape:connector-curvature="0"
     sodipodi:nodetypes="ccccsc" /></g></svg>